# xmcd CD database file
#
# Track frame offsets:
#	150
#	18544
#	23989
#	41537
#	47475
#	60079
#	63098
#	81285
#	85285
#	104399
#	106171
#	122348
#	130971
#	133962
#	152827
#	174952
#	192395
#	195805
#	206061
#	210147
#	225637
#	230497
#	244871
#
# Disc length: 3330 seconds
#
# Revision: 0
# Processed by: cddbd v1.5.2PL0 Copyright (c) Steve Scherf et al.
# Submitted via: CDex 1.51
#
DISCID=270d0017
DTITLE=Professor Bottleneck and The Juke Kings - Color Code
DYEAR=2008
DGENRE=Blues
TTITLE0=Cadillac Dream
TTITLE1=Delta Sunset
TTITLE2=Put The Screws On
TTITLE3=Poona Central
TTITLE4=Color Code
TTITLE5=Bohemian Bio Gas
TTITLE6=Nocturne
TTITLE7=Slide Away
TTITLE8=Strange Days
TTITLE9=Swamp Strut
TTITLE10=When Your Lover Is Gone
TTITLE11=Loisiana Breakdown
TTITLE12=Keep Your Amp Trimmed And Burning
TTITLE13=Nobody
TTITLE14=White Knuckle Slide
TTITLE15=Sleep That Endless Sleep
TTITLE16=Dawn On The Bayou
TTITLE17=Can't Fix That Thing
TTITLE18=Easy Slider
TTITLE19=Voyage To Timbuktu
TTITLE20=Audrey's Dream
TTITLE21=Rip It Up And Shake It
TTITLE22=The Spirit
EXTD=YEAR: 2008
EXTT0=
EXTT1=
EXTT2=
EXTT3=
EXTT4=
EXTT5=
EXTT6=
EXTT7=
EXTT8=
EXTT9=
EXTT10=
EXTT11=
EXTT12=
EXTT13=
EXTT14=
EXTT15=
EXTT16=
EXTT17=
EXTT18=
EXTT19=
EXTT20=
EXTT21=
EXTT22=
PLAYORDER=
